<?xml version="1.0" encoding="utf-8"?>
<!-- Generator: Adobe Illustrator 19.1.0, SVG Export Plug-In . SVG Version: 6.00 Build 0)  -->
<svg version="1.1" id="Layer_1" xmlns="http://www.w3.org/2000/svg" xmlns:xlink="http://www.w3.org/1999/xlink" x="0px" y="0px"
	 viewBox="0 0 50 50" style="enable-background:new 0 0 50 50;" xml:space="preserve">
<path d="M36.2,8.7c-6.4,0-11.7,5.2-11.7,11.7c0,6.4,5.2,11.7,11.7,11.7c6.4,0,11.7-5.2,11.7-11.7C47.9,13.9,42.7,8.7,36.2,8.7z
	 M36.2,28.5c-4.5,0-8.1-3.6-8.1-8.1s3.6-8.1,8.1-8.1c4.5,0,8.1,3.6,8.1,8.1S40.7,28.5,36.2,28.5z"/>
<path d="M35,34.7c-1,0-1.8,0.8-1.8,1.8v3.8H18.8V25.9h1.1c1,0,1.8-0.8,1.8-1.8s-0.8-1.8-1.8-1.8H17c-1,0-1.8,0.8-1.8,1.8v18
	c0,1,0.8,1.8,1.8,1.8h18c1,0,1.8-0.8,1.8-1.8v-5.6C36.8,35.5,36,34.7,35,34.7z"/>
<path d="M18.2,16.4c0.5,0.9,1.6,1.2,2.5,0.7c0.9-0.5,1.2-1.6,0.7-2.5l-5.1-8.8c-0.3-0.6-0.9-0.9-1.6-0.9c-0.6,0-1.2,0.3-1.6,0.9
	L2.6,24.1c-0.3,0.6-0.3,1.2,0,1.8c0.3,0.6,0.9,0.9,1.6,0.9h6c1,0,1.8-0.8,1.8-1.8s-0.8-1.8-1.8-1.8H7.3l7.4-12.9L18.2,16.4z"/>
</svg>
