<?xml version="1.0" encoding="utf-8"?>
<!-- Generator: Adobe Illustrator 19.1.0, SVG Export Plug-In . SVG Version: 6.00 Build 0)  -->
<svg version="1.1" id="Layer_1" xmlns="http://www.w3.org/2000/svg" xmlns:xlink="http://www.w3.org/1999/xlink" x="0px" y="0px"
	 viewBox="0 0 50 50" style="enable-background:new 0 0 50 50;" xml:space="preserve">
<g>
	<path d="M15.2,12.5c0.8,0.6,1.9,0.4,2.5-0.4c2-2.7,5.2-4.4,8.6-4.4c5.8,0,10.6,4.7,10.6,10.6s-4.7,10.6-10.6,10.6
		c-1,0-1.8,0.8-1.8,1.8s0.8,1.8,1.8,1.8c7.8,0,14.2-6.4,14.2-14.2S34.1,4.1,26.3,4.1c-4.5,0-8.8,2.2-11.5,5.9
		C14.3,10.8,14.4,11.9,15.2,12.5z"/>
	<path d="M44.7,25.2c-0.3-0.9-1.3-1.5-2.3-1.2c-0.9,0.3-1.5,1.3-1.2,2.3c0.3,1,0.5,2.1,0.5,3.2c0,5.8-4.7,10.6-10.6,10.6
		s-10.6-4.7-10.6-10.6c0-1.4,0.3-2.7,0.8-3.9c0.4-0.9-0.1-2-1-2.3c-0.9-0.4-2,0.1-2.3,1c-0.7,1.7-1,3.5-1,5.3
		c0,7.8,6.4,14.2,14.2,14.2s14.2-6.4,14.2-14.2C45.3,28.1,45.1,26.6,44.7,25.2z"/>
	<path d="M16,39.7c-4.6-1.3-7.7-5.4-7.7-10.2C8.3,23.7,13,19,18.8,19c2.8,0,5.5,1.1,7.5,3.1c0.7,0.7,1.8,0.7,2.5,0
		c0.7-0.7,0.7-1.8,0-2.5c-2.7-2.7-6.2-4.1-10-4.1c-7.8,0-14.2,6.4-14.2,14.2c0,6.4,4.3,12,10.4,13.7c0.2,0,0.3,0.1,0.5,0.1
		c0.8,0,1.5-0.5,1.7-1.3C17.5,41,17,40,16,39.7z"/>
</g>
</svg>
