<?xml version="1.0" encoding="utf-8"?>
<!-- Generator: Adobe Illustrator 19.1.0, SVG Export Plug-In . SVG Version: 6.00 Build 0)  -->
<svg version="1.1" id="Layer_1" xmlns="http://www.w3.org/2000/svg" xmlns:xlink="http://www.w3.org/1999/xlink" x="0px" y="0px"
	 viewBox="0 0 50 50" style="enable-background:new 0 0 50 50;" xml:space="preserve">
<path d="M25.5,3.2c-4.5,0-8.6,1.3-12.1,3.7c-0.3,0.1-0.5,0.3-0.8,0.5c-5.4,4-9,10.4-9,17.6c0,12,9.8,21.8,21.8,21.8S47.3,37,47.3,25
	S37.5,3.2,25.5,3.2z M38.3,12c-2.9,1.1-6,1.8-7.1,2c-0.1-0.2-0.1-0.4-0.2-0.6c-0.2-0.8-0.5-2-1.3-3.1c-0.6-1-1.7-1.7-2.6-2.4
	c-0.5-0.3-1.2-0.9-1.5-1.2C30.5,6.8,35,8.8,38.3,12z M13,36.8c-0.2,0.3-0.4,0.5-0.6,0.8C9.2,34.3,7.3,29.9,7.3,25
	c0-5.7,2.6-10.8,6.7-14.1c0.6,0.6,1.1,1.3,1.7,2.3c1.1,1.8,1.8,4.3,1.1,5.2c-0.6,0.8-2,1.5-3.3,2.1c-2,1-4.4,2.1-4.4,4.5
	c0,1.8,1.3,3.2,2.5,4.7c0.5,0.6,1,1.2,1.4,1.8C14.2,33.1,14.2,34.8,13,36.8z M25.5,43.2c-3.9,0-7.4-1.2-10.4-3.3
	c0.4-0.4,0.7-0.8,1-1.3c1.8-3.2,1.8-6.4-0.1-9.2c-0.5-0.7-1.1-1.4-1.7-2.1c-0.6-0.7-1.5-1.7-1.6-2.2c0.4-0.4,1.5-1,2.3-1.3
	c1.6-0.8,3.4-1.7,4.5-3.1c2.5-3.2-0.3-8.3-0.8-9.3c-0.5-1-1.1-1.8-1.7-2.5c1.5-0.8,3.1-1.4,4.9-1.7C22.1,8.9,23.6,10,25,11
	c0.7,0.5,1.4,1,1.7,1.4c0.4,0.6,0.6,1.3,0.8,2c0.3,1.2,0.9,3.3,3.4,3.3c0.1,0,0.1,0,0.2,0c1.1-0.1,5.6-1.1,9.5-2.7
	c1.9,2.9,3,6.3,3,10C43.7,35,35.5,43.2,25.5,43.2z"/>
<path d="M31.9,19.4c-2.9,0-5.8,1.4-7.3,3.4c-1,1.4-1.3,2.9-0.8,4.4c1,3.1,0.8,5.1,0.7,6.7c-0.2,1.8-0.4,3.8,1.9,5.3
	c0.7,0.4,1.5,0.7,2.3,0.7c1.1,0,2.2-0.3,3.4-1c3.9-2.2,8-7.6,7.9-12.3C40,22.6,36.4,19.4,31.9,19.4z M36.4,26.7
	c0.1,3.2-3.2,7.5-6.1,9.1c-1.1,0.6-1.8,0.6-2,0.5c-0.4-0.3-0.5-0.3-0.3-2c0.2-1.8,0.4-4.4-0.8-8.2c0-0.1-0.2-0.5,0.3-1.2
	c0.8-1.1,2.7-1.9,4.4-1.9C34.4,23,36.4,24.6,36.4,26.7L36.4,26.7z"/>
</svg>
