<?xml version="1.0" encoding="utf-8"?>
<!-- Generator: Adobe Illustrator 19.1.0, SVG Export Plug-In . SVG Version: 6.00 Build 0)  -->
<svg version="1.1" id="Layer_1" xmlns="http://www.w3.org/2000/svg" xmlns:xlink="http://www.w3.org/1999/xlink" x="0px" y="0px"
	 viewBox="225 -225 600 600" style="enable-background:new 225 -225 600 600;" xml:space="preserve">
<g>
	<path d="M446.4-191.3c25-10.7,51.2-16.1,78.6-16.1s53.6,5.4,78.6,16.1c25,10.7,46.6,25.2,64.7,43.4c18.1,18.2,32.5,39.8,43.2,64.8
		c10.7,25,16.1,51.3,16.1,78.9c0,21.4-2.5,42.2-7.4,62.4c-4.9,20.2-12.4,39.7-22.2,58.7s-19.4,35.5-28.7,49.6
		c-9.3,14.1-21,30.4-35.2,49l-89.5,115.5l-19.5,25l-19.4-25c-42.8-54.9-72.7-93.4-89.5-115.5c-14.2-18.5-25.9-34.8-35.2-49
		c-9.3-14.1-18.9-30.6-28.7-49.6c-9.9-18.9-17.3-38.5-22.2-58.7s-7.4-41-7.4-62.4c0-27.6,5.4-53.9,16.1-78.9
		c10.7-25,25.1-46.6,43.2-64.8C399.8-166.1,421.4-180.6,446.4-191.3z M595.4,186.4c29.2-38.1,50.6-71.5,64.1-100.2
		c13.5-28.7,20.2-59,20.2-90.9c0-28-6.9-53.9-20.7-77.8c-13.8-23.9-32.6-42.8-56.4-56.7c-23.8-13.9-49.7-20.8-77.7-20.8
		s-53.9,6.9-77.7,20.8c-23.8,13.9-42.6,32.8-56.4,56.7s-20.7,49.8-20.7,77.8c0,31.9,6.7,62.2,20.2,90.9
		c13.5,28.7,34.8,62.1,64.1,100.2c12.8,16.9,36.2,47.4,70.4,91.4C559.2,233.7,582.6,203.3,595.4,186.4z M479.6-69.9
		c12.5-12.6,27.7-18.9,45.4-18.9c17.7,0,32.8,6.3,45.4,18.9c12.5,12.5,18.8,27.7,18.8,45.4S583,8.3,570.4,20.9
		c-12.6,12.6-27.7,18.9-45.4,18.9c-17.7,0-32.8-6.3-45.4-18.9C467,8.3,460.8-6.8,460.8-24.5S467-57.3,479.6-69.9z"/>
</g>
</svg>
