<?xml version="1.0" encoding="utf-8"?>
<!-- Generator: Adobe Illustrator 19.1.0, SVG Export Plug-In . SVG Version: 6.00 Build 0)  -->
<svg version="1.1" id="Layer_1" xmlns="http://www.w3.org/2000/svg" xmlns:xlink="http://www.w3.org/1999/xlink" x="0px" y="0px"
	 viewBox="0 0 600 600" style="enable-background:new 0 0 600 600;" xml:space="preserve">
<g>
	<path d="M300,595C137.1,595,5,462.9,5,300C5,137.1,137.1,5,300,5s295,132.1,295,295C595,462.9,462.9,595,300,595z M439,369.6
		L369.5,300l69.5-69.5c4.6-4.6,7.3-10.8,7.3-17.3c0-6.6-2.7-13.1-7.3-17.7L404.5,161c-4.6-4.6-11.1-7.3-17.7-7.3
		c-6.5,0-12.7,2.7-17.3,7.3L300,230.5L230.5,161c-4.6-4.6-10.8-7.3-17.3-7.3c-6.6,0-13.1,2.7-17.7,7.3L161,195.5
		c-4.6,4.6-7.3,11.1-7.3,17.7c0,6.5,2.7,12.7,7.3,17.3l69.5,69.5L161,369.6c-4.6,4.6-7.3,10.8-7.3,17.2c0,6.6,2.7,13.1,7.3,17.7
		l34.6,34.6c4.6,4.6,11.1,7.3,17.7,7.3c6.5,0,12.7-2.7,17.3-7.3l69.5-69.5l69.5,69.5c4.6,4.6,10.8,7.3,17.3,7.3
		c6.6,0,13.1-2.7,17.7-7.3l34.6-34.6c4.6-4.6,7.3-11.1,7.3-17.7C446.4,380.3,443.7,374.1,439,369.6z"/>
</g>
</svg>
