<?xml version="1.0" encoding="utf-8"?>
<!-- Generator: Adobe Illustrator 19.1.0, SVG Export Plug-In . SVG Version: 6.00 Build 0)  -->
<svg version="1.1" id="Layer_1" xmlns="http://www.w3.org/2000/svg" xmlns:xlink="http://www.w3.org/1999/xlink" x="0px" y="0px"
	 viewBox="0 0 50 50" style="enable-background:new 0 0 50 50;" xml:space="preserve">
<path d="M37.3,27.7c-1,0-1.8,0.8-1.8,1.8v4.9c0,1.7-4,4.2-10.2,4.2s-10.2-2.5-10.2-4.2v-5c0-1-0.8-1.8-1.8-1.8s-1.8,0.8-1.8,1.8v5
	c0,4.4,5.9,7.8,13.8,7.8s13.8-3.4,13.8-7.8v-4.9C39.1,28.5,38.3,27.7,37.3,27.7z"/>
<path d="M48,17L26,7.7c-0.4-0.2-1-0.2-1.4,0L2.6,17c-0.6,0.3-1.1,0.9-1.1,1.6s0.4,1.4,1,1.7l22,10.8c0.3,0.1,0.5,0.2,0.8,0.2
	s0.5-0.1,0.8-0.2l15.4-7.6v8.9c0,1,0.8,1.8,1.8,1.8s1.8-0.8,1.8-1.8V21.7l3-1.5c0.6-0.3,1-1,1-1.7S48.6,17.2,48,17z M25.3,27.4
	L7.7,18.8l17.6-7.4l17.6,7.4L25.3,27.4z"/>
</svg>
