<?xml version="1.0" encoding="utf-8"?>
<!-- Generator: Adobe Illustrator 19.1.0, SVG Export Plug-In . SVG Version: 6.00 Build 0)  -->
<svg version="1.1" id="Layer_1" xmlns="http://www.w3.org/2000/svg" xmlns:xlink="http://www.w3.org/1999/xlink" x="0px" y="0px"
	 viewBox="0 0 600 600" style="enable-background:new 0 0 600 600;" xml:space="preserve">
<path d="M582.3,544L449.7,411.5c78.3-97,72.4-239.9-17.6-330c-96.4-96.4-253.3-96.4-349.6,0c-96.4,96.4-96.4,253.3,0,349.6
	c46.7,46.7,108.8,72.4,174.8,72.4c57.2,0,111.3-19.4,155.1-54.8L545,581.3c5.1,5.1,11.9,7.7,18.6,7.7c6.8,0,13.5-2.6,18.6-7.7
	C592.6,571,592.6,554.3,582.3,544z M119.7,393.8c-75.8-75.8-75.8-199.2,0-275.1c37.9-37.9,87.7-56.9,137.5-56.9s99.6,19,137.5,56.9
	c75.8,75.9,75.8,199.2,0,275.1c-36.7,36.8-85.6,57-137.5,57S156.5,430.6,119.7,393.8z"/>
</svg>
