<?xml version="1.0" encoding="utf-8"?>
<!-- Generator: Adobe Illustrator 19.1.0, SVG Export Plug-In . SVG Version: 6.00 Build 0)  -->
<svg version="1.1" id="Layer_1" xmlns="http://www.w3.org/2000/svg" xmlns:xlink="http://www.w3.org/1999/xlink" x="0px" y="0px"
	 viewBox="0 0 600 600" style="enable-background:new 0 0 600 600;" xml:space="preserve">
<g>
	<path d="M515.3,277h65.6V323h-65.6c-5.4,50.5-26.2,93.8-62.3,130c-36.2,36.2-79.5,57-130,62.3v65.6H277v-65.6
		c-50.5-5.4-93.8-26.2-130-62.3c-36.2-36.2-57-79.5-62.3-130H19.1V277h65.6c5.4-50.5,26.1-93.8,62.3-130c36.2-36.2,79.5-57,130-62.3
		V19.1H323v65.6c50.5,5.4,93.8,26.2,130,62.3C489.2,183.2,509.9,226.5,515.3,277z M233.8,456.9c21.1,9,43.2,13.5,66.2,13.5
		c23,0,45.1-4.5,66.2-13.5c21.1-9,39.2-21.1,54.4-36.3c15.1-15.1,27.2-33.3,36.3-54.4c9-21.1,13.5-43.2,13.5-66.2
		s-4.5-45.1-13.5-66.2c-9-21.1-21.1-39.3-36.3-54.4c-15.2-15.1-33.3-27.2-54.4-36.3c-21.1-9-43.2-13.5-66.2-13.5
		c-23,0-45.1,4.5-66.2,13.5c-21.1,9-39.3,21.1-54.4,36.3c-15.2,15.1-27.3,33.3-36.3,54.4c-9,21.1-13.5,43.2-13.5,66.2
		s4.5,45.1,13.5,66.2c9,21.1,21.1,39.3,36.3,54.4C194.6,435.8,212.7,447.8,233.8,456.9z M270.8,270.8c8.1-8.2,17.9-12.2,29.2-12.2
		c11.3,0,21,4.1,29.2,12.2c8.1,8.2,12.2,17.9,12.2,29.2s-4.1,21-12.2,29.2c-8.2,8.2-17.9,12.2-29.2,12.2c-11.3,0-21.1-4.1-29.2-12.2
		c-8.2-8.2-12.2-17.9-12.2-29.2S262.6,279,270.8,270.8z"/>
</g>
</svg>
